<svg>
    <symbol id="Summary" viewBox="0 0 24 24" strokeWidth="1.5">
        <path d="M20 2H4c-1.1 0-2 .9-2 2v18l4-4h14c1.1 0 2-.9 2-2V4c0-1.1-.9-2-2-2zm0 14H5.17L4 17.17V4h16v12zM11 5h2v6h-2zm0 8h2v2h-2z"/>
    </symbol>
    <symbol id="AccountSettings" viewBox="0 0 24 24" strokeWidth="1.5">
        <g>
            <g>
                <path d="M4,18v-0.65c0-0.34,0.16-0.66,0.41-0.81C6.1,15.53,8.03,15,10,15c0.03,0,0.05,0,0.08,0.01c0.1-0.7,0.3-1.37,0.59-1.98 C10.45,13.01,10.23,13,10,13c-2.42,0-4.68,0.67-6.61,1.82C2.51,15.34,2,16.32,2,17.35V20h9.26c-0.42-0.6-0.75-1.28-0.97-2H4z"/><path d="M10,12c2.21,0,4-1.79,4-4s-1.79-4-4-4C7.79,4,6,5.79,6,8S7.79,12,10,12z M10,6c1.1,0,2,0.9,2,2s-0.9,2-2,2 c-1.1,0-2-0.9-2-2S8.9,6,10,6z"/><path d="M20.75,16c0-0.22-0.03-0.42-0.06-0.63l1.14-1.01l-1-1.73l-1.45,0.49c-0.32-0.27-0.68-0.48-1.08-0.63L18,11h-2l-0.3,1.49 c-0.4,0.15-0.76,0.36-1.08,0.63l-1.45-0.49l-1,1.73l1.14,1.01c-0.03,0.21-0.06,0.41-0.06,0.63s0.03,0.42,0.06,0.63l-1.14,1.01 l1,1.73l1.45-0.49c0.32,0.27,0.68,0.48,1.08,0.63L16,21h2l0.3-1.49c0.4-0.15,0.76-0.36,1.08-0.63l1.45,0.49l1-1.73l-1.14-1.01 C20.72,16.42,20.75,16.22,20.75,16z M17,18c-1.1,0-2-0.9-2-2s0.9-2,2-2s2,0.9,2,2S18.1,18,17,18z"/>
            </g>
        </g>
    </symbol>
    <symbol id="Standards" viewBox="0 0 24 24" strokeWidth="1.5">
        <g>
            <g>
                <path d="M20,3H4C2.9,3,2,3.9,2,5v14c0,1.1,0.9,2,2,2h16c1.1,0,2-0.9,2-2V5 C22,3.9,21.1,3,20,3z M20,19H4V5h16V19z" fill-rule="evenodd"/>
                <polygon fill-rule="evenodd" points="19.41,10.42 17.99,9 14.82,12.17 13.41,10.75 12,12.16 14.82,15"/>
                <rect fill-rule="evenodd" height="2" width="5" x="5" y="7"/>
                <rect fill-rule="evenodd" height="2" width="5" x="5" y="11"/>
                <rect fill-rule="evenodd" height="2" width="5" x="5" y="15"/>
            </g>
        </g>
    </symbol>
    <symbol id="Webinars" viewBox="0 0 24 24" strokeWidth="1.5">
        <path d="M18 3v2h-2V3H8v2H6V3H4v18h2v-2h2v2h8v-2h2v2h2V3h-2zM8 17H6v-2h2v2zm0-4H6v-2h2v2zm0-4H6V7h2v2zm6 10h-4V5h4v14zm4-2h-2v-2h2v2zm0-4h-2v-2h2v2zm0-4h-2V7h2v2z"/>
    </symbol>
    <symbol id="ResourceMap" viewBox="0 0 24 24" strokeWidth="1.5">
        <g>
            <g>
                <rect height="4" width="4" x="7.25" y="7.25"/>
                <rect height="4" width="4" x="12.75" y="7.25"/>
                <rect height="4" width="4" x="7.25" y="12.75"/>
                <rect height="4" width="4" x="12.75" y="12.75"/>
                <path d="M20,4H4C2.9,4,2,4.9,2,6v12c0,1.1,0.9,2,2,2h16c1.1,0,2-0.9,2-2V6C22,4.9,21.1,4,20,4z M20,18H4V6h16V18z"/>
            </g>
        </g>
    </symbol>
    <symbol id="Calendar" viewBox="0 0 24 24" strokeWidth="1.5">
        <path d="M19 4h-1V2h-2v2H8V2H6v2H5c-1.11 0-1.99.9-1.99 2L3 20c0 1.1.89 2 2 2h14c1.1 0 2-.9 2-2V6c0-1.1-.9-2-2-2zm0 16H5V10h14v10zm0-12H5V6h14v2zm-7 5h5v5h-5z"/>
    </symbol>
    <symbol id="Exchange" viewBox="0 0 24 24" strokeWidth="1.5">
        <path d="M9.01 14H2v2h7.01v3L13 15l-3.99-4v3zm5.98-1v-3H22V8h-7.01V5L11 9l3.99 4z"/>
    </symbol>
    <symbol id="Additional" viewBox="0 0 24 24" strokeWidth="1.5">
        <g>
            <g>
                <rect height="2" width="9" x="13" y="7"/>
                <rect height="2" width="9" x="13" y="15"/>
                <rect height="2" width="6" x="16" y="11"/>
                <polygon points="13,12 8,7 8,11 2,11 2,13 8,13 8,17"/>
            </g>
        </g>
    </symbol>
</svg>