<svg>
    <symbol id="LogIn" viewBox="0 0 24 24" strokeWidth="1.5">
        <g>
            <path d="M11,7L9.6,8.4l2.6,2.6H2v2h10.2l-2.6,2.6L11,17l5-5L11,7z M20,19h-8v2h8c1.1,0,2-0.9,2-2V5c0-1.1-0.9-2-2-2h-8v2h8V19z"/>
        </g>
    </symbol>
    <symbol id="ToCabinet" viewBox="0 0 24 24" strokeWidth="1.5">
        <g>
            <path d="M12,2C6.48,2,2,6.48,2,12s4.48,10,10,10s10-4.48,10-10S17.52,2,12,2z M12,6c1.93,0,3.5,1.57,3.5,3.5S13.93,13,12,13 s-3.5-1.57-3.5-3.5S10.07,6,12,6z M12,20c-2.03,0-4.43-0.82-6.14-2.88C7.55,15.8,9.68,15,12,15s4.45,0.8,6.14,2.12 C16.43,19.18,14.03,20,12,20z"/>
        </g>
    </symbol>
</svg>